<svg xmlns="http://www.w3.org/2000/svg" width="80" height="47" viewBox="0 0 80 47">
    <defs>
        <linearGradient id="eldygfpp9a" x2="1" y2="1" gradientUnits="objectBoundingBox">
            <stop offset="0" stop-color="#8eb1fc"/>
            <stop offset="1" stop-color="#7293fa"/>
        </linearGradient>
        <linearGradient id="ukcjzlalkb" x2="1" y2="1" gradientUnits="objectBoundingBox">
            <stop offset="0" stop-color="#5b719f"/>
            <stop offset="1" stop-color="#2e3d62"/>
        </linearGradient>
        <linearGradient id="1slqz13fjc" x2="1" y2="1" gradientUnits="objectBoundingBox">
            <stop offset="0" stop-color="#ffecc3"/>
            <stop offset="1" stop-color="#ffd590"/>
        </linearGradient>
    </defs>
    <g>
        <g>
            <g>
                <g transform="translate(-294 -499) translate(277 456) translate(0 21) translate(17 22)">
                    <ellipse cx="40" cy="5.5" fill="#e9effe" rx="40" ry="5.5" transform="translate(0 36)"/>
                    <g transform="translate(11)">
                        <path fill="url(#eldygfpp9a)" fill-rule="evenodd" d="M54.783 42H3.217A3.217 3.217 0 0 1 0 38.783V3.217A3.217 3.217 0 0 1 3.217 0h51.566A3.217 3.217 0 0 1 58 3.217v35.566A3.217 3.217 0 0 1 54.783 42"/>
                        <path fill="#6e8dea" d="M0 0H58V8H0z" transform="translate(0 6)"/>
                        <path fill="url(#ukcjzlalkb)" d="M0 0H58V8H0z" transform="translate(0 5)"/>
                        <path fill="#7d9ae8" fill-rule="evenodd" d="M19.636 19a1.507 1.507 0 0 1 0 3H7.364a1.507 1.507 0 0 1 0-3zM38 20.5a1.436 1.436 0 0 1-1.364 1.5H24.364a1.507 1.507 0 0 1 0-3h12.272A1.436 1.436 0 0 1 38 20.5zM8 26c.553 0 1 .672 1 1.5S8.553 29 8 29H7c-.553 0-1-.672-1-1.5S6.447 26 7 26zm9.5 0a1.5 1.5 0 0 1 0 3h-3a1.5 1.5 0 0 1 0-3zm5.5 0c.553 0 1 .672 1 1.5s-.447 1.5-1 1.5h-1c-.553 0-1-.672-1-1.5s.447-1.5 1-1.5zm7.5 0a1.5 1.5 0 0 1 0 3h-3a1.5 1.5 0 0 1 0-3zm4.35.075a1.323 1.323 0 0 1 1.838 0 1.389 1.389 0 0 1 0 1.9 1.341 1.341 0 0 1-.919.388 1.305 1.305 0 0 1-.919-.388 1.389 1.389 0 0 1 0-1.9z"/>
                        <path fill="#b0d3f0" fill-rule="evenodd" d="M18.636 18a1.507 1.507 0 0 1 0 3H6.364a1.507 1.507 0 0 1 0-3zM37 19.5a1.436 1.436 0 0 1-1.364 1.5H23.364a1.507 1.507 0 0 1 0-3h12.272A1.436 1.436 0 0 1 37 19.5zM7 25c.553 0 1 .672 1 1.5S7.553 28 7 28H6c-.553 0-1-.672-1-1.5S5.447 25 6 25zm9.5 0a1.5 1.5 0 0 1 0 3h-3a1.5 1.5 0 0 1 0-3zm5.5 0c.553 0 1 .672 1 1.5s-.447 1.5-1 1.5h-1c-.553 0-1-.672-1-1.5s.447-1.5 1-1.5zm7.5 0a1.5 1.5 0 0 1 0 3h-3a1.5 1.5 0 0 1 0-3zm4.35.075a1.323 1.323 0 0 1 1.838 0 1.389 1.389 0 0 1 0 1.9 1.341 1.341 0 0 1-.919.388 1.305 1.305 0 0 1-.919-.388 1.389 1.389 0 0 1 0-1.9z"/>
                        <rect width="12" height="7" fill="#6785df" rx="2" transform="translate(42 31)"/>
                        <rect width="12" height="7" fill="url(#1slqz13fjc)" rx="2" transform="translate(41 30)"/>
                    </g>
                </g>
            </g>
        </g>
    </g>
</svg>
